<?xml version="1.0" encoding="UTF-8" standalone="no"?>
<!-- Generator: Adobe Illustrator 19.0.0, SVG Export Plug-In . SVG Version: 6.00 Build 0)  -->

<svg
   xmlns:dc="http://purl.org/dc/elements/1.1/"
   xmlns:cc="http://creativecommons.org/ns#"
   xmlns:rdf="http://www.w3.org/1999/02/22-rdf-syntax-ns#"
   xmlns:svg="http://www.w3.org/2000/svg"
   xmlns="http://www.w3.org/2000/svg"
   xmlns:sodipodi="http://sodipodi.sourceforge.net/DTD/sodipodi-0.dtd"
   xmlns:inkscape="http://www.inkscape.org/namespaces/inkscape"
   version="1.1"
   id="Calque_1"
   x="0px"
   y="0px"
   viewBox="-124 126 200 200"
   style="enable-background:new -124 126 200 200;"
   xml:space="preserve"
   sodipodi:docname="mouse-globe.svg"
   inkscape:version="0.92.4 (f8dce91, 2019-08-02)"><metadata
   id="metadata13"><rdf:RDF><cc:Work
       rdf:about=""><dc:format>image/svg+xml</dc:format><dc:type
         rdf:resource="http://purl.org/dc/dcmitype/StillImage" /></cc:Work></rdf:RDF></metadata><defs
   id="defs11">
	
	
</defs><sodipodi:namedview
   pagecolor="#ffffff"
   bordercolor="#666666"
   borderopacity="1"
   objecttolerance="10"
   gridtolerance="10"
   guidetolerance="10"
   inkscape:pageopacity="0"
   inkscape:pageshadow="2"
   inkscape:window-width="1920"
   inkscape:window-height="1010"
   id="namedview9"
   showgrid="false"
   inkscape:zoom="1.18"
   inkscape:cx="100"
   inkscape:cy="100"
   inkscape:window-x="0"
   inkscape:window-y="34"
   inkscape:window-maximized="1"
   inkscape:current-layer="Calque_1" />
<style
   type="text/css"
   id="style2">
	.st0{fill:#00EFB7;}
	.st1{opacity:0.3;}
	.st2{fill:#585763;}
</style>
<path
   style="fill:#4fc1ea;fill-opacity:1"
   inkscape:connector-curvature="0"
   d="M 26.3,246.3 16,236 c -8.3,-8.3 -21.8,-8.3 -30.1,0 -8.3,8.3 -8.3,21.8 0,30.1 l 10.2,10.2 c 4.1,4.2 9.6,6.2 15.1,6.2 5.5,0 10.9,-2.1 15.1,-6.2 8.3,-8.2 8.3,-21.7 0,-30 z M 1,234.1 c 3.7,0 7.3,1.2 10.3,3.5 L 1,248 -9.3,237.7 c 3,-2.4 6.6,-3.6 10.3,-3.6 z m -13.4,6.6 10.3,10.3 -10.3,10.3 c -4.7,-6 -4.7,-14.5 0,-20.6 z m 35.6,32.6 c -6.6,6.6 -17.4,6.6 -24,0 l -8.7,-8.7 24,-24 8.7,8.7 c 6.6,6.6 6.6,17.4 0,24 z"
   class="st0"
   id="XMLID_1509_" /><g
   style="opacity:0.3"
   class="st1"
   id="XMLID_977_">
		<path
   style="fill:#585763"
   inkscape:connector-curvature="0"
   d="m -3.8,276.4 -1.6,-1.6 c -1.5,0.6 -3.1,1.1 -4.7,1.5 1,-1 2,-2.1 2.9,-3.3 l -3.2,-3.2 c -3.4,4.5 -7.3,7.4 -11.5,8.1 v -18.8 c 1,0 2.1,0 3.1,-0.1 -0.6,-1.4 -1,-2.8 -1.2,-4.3 -0.6,0 -1.3,0 -1.9,0 V 228 H 1.6 c 0,0.5 0,1.1 -0.1,1.6 1.5,0 2.9,0.2 4.3,0.6 0,-0.7 0.1,-1.4 0.1,-2.1 H 28 c -0.2,5.8 -1.4,11.3 -3.4,16.4 l 1.6,1.6 c 0.6,0.6 1.2,1.2 1.7,1.9 2.9,-6.8 4.5,-14.3 4.5,-22.1 0,-31.1 -25.3,-56.5 -56.5,-56.5 -31.2,0 -56.4,25.5 -56.4,56.7 0,31.2 25.3,56.5 56.5,56.5 7.8,0 15.3,-1.6 22.1,-4.5 -0.7,-0.6 -1.3,-1.1 -1.9,-1.7 z m 26.1,-74.3 c 3.4,6.6 5.5,14 5.8,21.8 H 6 c -0.2,-9 -1.4,-17.5 -3.5,-24.9 6.6,0.9 13.2,2.1 19.7,3.7 z m -2.7,-4.5 c -6.2,-1.4 -12.4,-2.4 -18.7,-3.2 -2.8,-7.9 -6.6,-14.2 -11.1,-18.6 12.5,3.5 23,11.4 29.8,21.8 z m -41.4,-23.4 c 7.1,1.3 13.5,8.8 17.9,19.7 -5.9,-0.6 -11.9,-0.9 -17.9,-1 z m 0,23.1 c 6.5,0.1 13,0.5 19.5,1.2 2.4,7.5 3.8,16.2 4,25.5 h -23.5 z m -16.1,-21.5 c -4.5,4.3 -8.3,10.7 -11.1,18.6 -6.3,0.8 -12.5,1.9 -18.7,3.2 6.9,-10.4 17.4,-18.3 29.8,-21.8 z m -32.4,26.3 0.1,0.5 c 6.5,-1.6 13.1,-2.8 19.7,-3.7 -2.1,7.4 -3.4,15.8 -3.5,24.9 h -22.1 c 0.3,-7.7 2.4,-15.1 5.8,-21.7 z m 0,47.9 c -3.4,-6.6 -5.5,-14 -5.8,-21.8 H -54 c 0.2,9 1.4,17.5 3.5,24.9 -6.6,-0.9 -13.2,-2.1 -19.7,-3.7 z m 2.6,4.5 c 6.2,1.4 12.4,2.4 18.7,3.2 2.8,7.9 6.6,14.2 11.1,18.6 -12.4,-3.4 -22.9,-11.3 -29.8,-21.8 z m 41.5,23.5 c -7.1,-1.3 -13.5,-8.8 -17.9,-19.7 5.9,0.6 11.9,0.9 17.9,1 z m 0,-23.1 c -6.5,-0.1 -13,-0.5 -19.5,-1.2 -2.4,-7.5 -3.8,-16.2 -4,-25.5 h 23.5 z m 0,-31 h -23.5 c 0.2,-9.3 1.7,-18 4,-25.5 6.5,-0.7 13,-1.1 19.5,-1.2 z m 0,-31 c -6,0.1 -11.9,0.4 -17.8,1 4.3,-11 10.7,-18.5 17.8,-19.7 z"
   class="st2"
   id="XMLID_981_" />
	</g>
</svg>