<?xml version="1.0" encoding="UTF-8" standalone="no"?>
<!-- Created with Inkscape (http://www.inkscape.org/) -->

<svg
   xmlns:dc="http://purl.org/dc/elements/1.1/"
   xmlns:cc="http://creativecommons.org/ns#"
   xmlns:rdf="http://www.w3.org/1999/02/22-rdf-syntax-ns#"
   xmlns:svg="http://www.w3.org/2000/svg"
   xmlns="http://www.w3.org/2000/svg"
   xmlns:sodipodi="http://sodipodi.sourceforge.net/DTD/sodipodi-0.dtd"
   xmlns:inkscape="http://www.inkscape.org/namespaces/inkscape"
   width="1230"
   height="300"
   viewBox="0 0 325.4375 79.375002"
   version="1.1"
   id="svg3777"
   inkscape:version="0.92.4 (f8dce91, 2019-08-02)"
   sodipodi:docname="logo.svg"
   inkscape:export-filename="/home/vanessa/logos/logo-3.1.png"
   inkscape:export-xdpi="174"
   inkscape:export-ydpi="174">
  <defs
     id="defs3771" />
  <sodipodi:namedview
     id="base"
     pagecolor="#ffffff"
     bordercolor="#666666"
     borderopacity="1.0"
     inkscape:pageopacity="0.0"
     inkscape:pageshadow="2"
     inkscape:zoom="0.43122088"
     inkscape:cx="849.25946"
     inkscape:cy="423.69654"
     inkscape:document-units="px"
     inkscape:current-layer="layer1"
     showgrid="false"
     inkscape:pagecheckerboard="true"
     inkscape:window-width="1920"
     inkscape:window-height="1010"
     inkscape:window-x="0"
     inkscape:window-y="34"
     inkscape:window-maximized="1"
     units="px" />
  <metadata
     id="metadata3774">
    <rdf:RDF>
      <cc:Work
         rdf:about="">
        <dc:format>image/svg+xml</dc:format>
        <dc:type
           rdf:resource="http://purl.org/dc/dcmitype/StillImage" />
        <dc:title></dc:title>
      </cc:Work>
    </rdf:RDF>
  </metadata>
  <g
     inkscape:label="Layer 1"
     inkscape:groupmode="layer"
     id="layer1"
     transform="translate(0,-217.625)">
    <path
       style="color:#000000;font-style:normal;font-variant:normal;font-weight:normal;font-stretch:normal;font-size:medium;line-height:normal;font-family:sans-serif;font-variant-ligatures:normal;font-variant-position:normal;font-variant-caps:normal;font-variant-numeric:normal;font-variant-alternates:normal;font-feature-settings:normal;text-indent:0;text-align:start;text-decoration:none;text-decoration-line:none;text-decoration-style:solid;text-decoration-color:#000000;letter-spacing:normal;word-spacing:normal;text-transform:none;writing-mode:lr-tb;direction:ltr;text-orientation:mixed;dominant-baseline:auto;baseline-shift:baseline;text-anchor:start;white-space:normal;shape-padding:0;clip-rule:nonzero;display:inline;overflow:visible;visibility:visible;opacity:1;isolation:auto;mix-blend-mode:normal;color-interpolation:sRGB;color-interpolation-filters:linearRGB;solid-color:#000000;solid-opacity:1;vector-effect:none;fill:#000000;fill-opacity:1;fill-rule:nonzero;stroke:#00afb5;stroke-width:2.53714776;stroke-linecap:butt;stroke-linejoin:miter;stroke-miterlimit:4;stroke-dasharray:none;stroke-dashoffset:0;stroke-opacity:1;color-rendering:auto;image-rendering:auto;shape-rendering:auto;text-rendering:auto;enable-background:accumulate"
       d="m 43.069786,221.40792 c -20.677519,0 -37.4441591,16.30214 -37.4441591,36.40669 0,20.10466 16.7666401,36.40483 37.4441591,36.40483 20.677501,0 37.442061,-16.30017 37.442061,-36.40483 0,-20.10455 -16.76456,-36.40669 -37.442061,-36.40669 z m 0,0.24567 c 20.54186,0 37.190079,16.18904 37.190079,36.16184 0,19.97277 -16.648219,36.15972 -37.190079,36.15972 -20.541852,0 -37.1921861,-16.18695 -37.1921861,-36.15972 0,-19.9728 16.6503341,-36.16184 37.1921861,-36.16184 z"
       id="path815-6"
       inkscape:connector-curvature="0"
       inkscape:export-xdpi="174.54497"
       inkscape:export-ydpi="174.54497"
       inkscape:export-filename="/home/vanessa/Documents/inniti/site/inniti-1/static/images/logo.png" />
    <ellipse
       style="fill:#000000;fill-opacity:1;fill-rule:nonzero;stroke:#00afb5;stroke-width:2.71851563;stroke-miterlimit:4;stroke-dasharray:none;stroke-opacity:1"
       id="path817-62"
       cx="20.051027"
       cy="259.16125"
       rx="1.3293277"
       ry="22.605"
       inkscape:export-xdpi="174"
       inkscape:export-ydpi="174"
       inkscape:export-filename="/home/vanessa/Documents/inniti/site/inniti-1/static/images/logo.png" />
    <ellipse
       style="fill:#000000;fill-opacity:1;fill-rule:nonzero;stroke:#00afb5;stroke-width:2.71851563;stroke-miterlimit:4;stroke-dasharray:none;stroke-opacity:1"
       id="path817-3-61"
       cx="45.568878"
       cy="259.14816"
       rx="1.3293282"
       ry="22.605"
       inkscape:export-xdpi="174"
       inkscape:export-ydpi="174"
       inkscape:export-filename="/home/vanessa/Documents/inniti/site/inniti-1/static/images/logo.png" />
    <ellipse
       style="fill:#000000;fill-opacity:1;fill-rule:nonzero;stroke:#00afb5;stroke-width:2.37155628;stroke-miterlimit:4;stroke-dasharray:none;stroke-opacity:1"
       id="path817-3-6-8"
       cx="55.583332"
       cy="259.20255"
       rx="1.0998566"
       ry="22.814564"
       inkscape:export-xdpi="174"
       inkscape:export-ydpi="174"
       inkscape:export-filename="/home/vanessa/Documents/inniti/site/inniti-1/static/images/logo.png" />
    <ellipse
       style="fill:#000000;fill-opacity:1;fill-rule:nonzero;stroke:#00afb5;stroke-width:2.5907197;stroke-miterlimit:4;stroke-dasharray:none;stroke-opacity:1"
       id="path817-3-6-7-7"
       cx="65.646378"
       cy="258.83237"
       rx="1.1889565"
       ry="22.953449"
       inkscape:export-xdpi="174"
       inkscape:export-ydpi="174"
       inkscape:export-filename="/home/vanessa/Documents/inniti/site/inniti-1/static/images/logo.png" />
    <ellipse
       style="fill:#000000;fill-opacity:1;fill-rule:nonzero;stroke:#00afb5;stroke-width:2.30205822;stroke-miterlimit:4;stroke-dasharray:none;stroke-opacity:1"
       id="path817-3-6-7-5-9"
       cx="-234.15347"
       cy="39.686428"
       rx="0.92054117"
       ry="23.407907"
       transform="matrix(-0.01352667,-0.99990851,0.99997978,-0.00635849,0,0)"
       inkscape:export-xdpi="174"
       inkscape:export-ydpi="174"
       inkscape:export-filename="/home/vanessa/Documents/inniti/site/inniti-1/static/images/logo.png" />
    <ellipse
       style="fill:#000000;fill-opacity:1;fill-rule:nonzero;stroke:#00afb5;stroke-width:2.71851563;stroke-miterlimit:4;stroke-dasharray:none;stroke-opacity:1"
       id="path817-3-3-2"
       cx="37.562317"
       cy="259.24295"
       rx="1.3293282"
       ry="22.605"
       inkscape:export-xdpi="174"
       inkscape:export-ydpi="174"
       inkscape:export-filename="/home/vanessa/Documents/inniti/site/inniti-1/static/images/logo.png" />
    <ellipse
       style="fill:#000000;fill-opacity:1;fill-rule:nonzero;stroke:#00afb5;stroke-width:2.71851754;stroke-miterlimit:4;stroke-dasharray:none;stroke-opacity:1"
       id="path817-3-3-5-02"
       cx="-22.445799"
       cy="259.9545"
       rx="1.3290821"
       ry="23.071457"
       transform="matrix(0.98034336,-0.19729898,0.19910076,0.97997902,0,0)"
       inkscape:export-xdpi="174"
       inkscape:export-ydpi="174"
       inkscape:export-filename="/home/vanessa/Documents/inniti/site/inniti-1/static/images/logo.png" />
    <path
       style="opacity:1;fill:none;fill-opacity:1;fill-rule:nonzero;stroke:none;stroke-width:0.33736613;stroke-miterlimit:4;stroke-dasharray:none;stroke-opacity:1"
       d="m -162.36781,291.64871 c -64.90794,-4.76118 -119.77038,-47.72914 -137.67677,-107.82769 -2.01268,-6.75513 -3.7719,-14.9146 -4.81063,-22.31234 -1.00651,-7.16834 -1.36273,-22.91818 -0.69894,-30.90253 5.55514,-66.819862 56.6851,-121.9329853 125.00827,-134.7468465 12.51918,-2.3479502 28.93021,-3.2385605 41.58232,-2.2566857 69.859593,5.42164213 127.13358,55.0528982 140.1467839,121.4453122 2.3923469,12.20556 3.2271696,30.34448 1.9365755,42.07766 -3.24270453,29.48038 -14.6329154,56.36575 -33.5176554,79.11477 -5.211034,6.27735 -17.251604,17.88968 -23.58324,22.74454 -23.368943,17.91828 -50.350444,28.81479 -79.301814,32.02601 -7.83061,0.86859 -21.77123,1.1743 -29.0849,0.6378 z m -10.35023,-52.94594 c 1.09742,-0.45379 2.34337,-1.33725 2.76877,-1.96341 3.36945,-4.95979 5.29771,-36.80933 5.29771,-87.5033 0,-47.90447 -1.73559,-79.244124 -4.81753,-86.990255 -0.23496,-0.59053 0.92391,-0.671555 9.60075,-0.671555 9.21821,0 9.84669,0.05034 9.54478,0.767005 -1.71671,4.07453 -2.818,14.02813 -3.89177,35.174299 -0.76966,15.156926 -1.05842,68.695346 -0.4716,87.442656 1.0534,33.6559 2.45849,47.99954 5.04515,51.50315 0.49269,0.66735 1.74117,1.53959 2.77438,1.93833 1.71985,0.66371 2.05934,0.66703 4.01827,0.0415 3.77421,-1.20906 4.83871,-4.33757 6.12225,-17.99266 2.90822,-30.93979 3.03575,-107.87979 0.23391,-141.120809 -0.62685,-7.437002 -1.69777,-14.501235 -2.46782,-16.278725 l -0.61435,-1.41813 2.35084,-0.231508 c 1.29297,-0.127323 6.49657,-0.312682 11.56355,-0.411368 l 9.21272,-0.18041 -0.23028,1.370352 c -1.81616,10.809077 -2.87094,91.963788 -1.64137,126.288468 1.09131,30.46525 2.44338,44.5037 4.61845,47.95329 0.54173,0.85912 1.69049,1.72734 3.00394,2.27039 2.11574,0.87468 2.13753,0.87483 4.19942,0.0231 3.5889,-1.48376 4.53595,-4.17948 5.70265,-16.23194 3.157691,-32.62012 3.383714,-122.25453 0.40103,-159.041732 l -0.2932,-3.616019 3.130042,-0.0021 c 7.64985,-0.0042 25.466959,-1.949693 30.03134,-3.275926 3.963833,-1.151809 5.804423,-4.431739 4.431964,-7.897842 -1.047715,-2.646003 -3.705508,-3.890146 -10.201252,-4.775361 -30.703584,-4.184187 -147.784954,-2.66159 -167.403754,2.177041 -3.80803,0.939173 -5.41062,2.079045 -6.30842,4.487038 -0.71363,1.914038 -0.70416,2.06308 0.25323,3.994183 0.77134,1.555795 1.4788,2.23765 3.1524,3.038327 l 2.15787,1.032332 -1.92024,0.940034 c -1.05751,0.51771 -2.30475,1.586251 -2.77606,2.378256 -2.54798,4.281927 -4.02401,23.19533 -4.86478,62.335769 -0.98961,46.06932 0.90729,98.84257 3.92288,109.138 0.86764,2.96216 1.79762,4.10545 4.09371,5.03267 1.48963,0.60157 2.08415,0.63236 3.71686,0.19267 3.87156,-1.04276 4.9734,-3.79884 6.20935,-15.53213 3.25864,-30.93528 3.38769,-112.66633 0.23151,-146.606884 -1.05075,-11.29927 -2.40323,-15.705474 -5.20327,-16.951591 l -1.36336,-0.606773 1.81781,0.23798 c 2.49923,0.327423 10.27775,1.085863 11.23235,1.095169 0.69723,0.0085 0.67313,0.182102 -0.22721,1.651266 -0.90753,1.481009 -1.00061,2.185813 -0.94065,7.122481 0.30899,25.436809 24.15586,142.340352 33.41935,163.830302 1.747,4.05278 3.3565,5.64756 6.10022,6.0444 1.82929,0.26471 2.30274,0.14847 3.96809,-0.9728 1.15047,-0.77466 2.0546,-1.80357 2.30886,-2.62751 l 0.41791,-1.3543 0.94545,1.80488 c 0.67679,1.29195 1.52655,2.07996 2.99047,2.77296 2.50749,1.18711 2.23468,1.17653 4.64667,0.17935 z m 105.644686,-0.72851 c 2.916926,-1.15016 4.190679,-5.74197 5.344404,-19.26627 1.525476,-17.88196 1.836892,-29.72428 1.838437,-69.91028 0.0013,-44.85263 -0.655528,-63.671752 -2.750874,-78.766118 -1.080828,-7.786062 -2.197675,-9.986763 -5.621339,-11.076518 -1.502881,-0.478371 -2.042239,-0.451024 -3.784693,0.190561 -3.389144,1.248338 -4.370215,3.675747 -5.554364,13.74288 -1.72973,14.70546 -2.534644,38.815785 -2.534211,75.909125 4.14e-4,37.13007 0.751943,59.51121 2.538831,75.60834 1.105444,9.95833 2.049787,12.392 5.355824,13.80227 1.925493,0.8214 2.564644,0.79242 5.167985,-0.23382 z"
       id="path4630"
       inkscape:connector-curvature="0"
       inkscape:export-xdpi="174"
       inkscape:export-ydpi="174" />
    <path
       style="opacity:1;fill:none;fill-opacity:1;fill-rule:nonzero;stroke:none;stroke-width:0.08958755;stroke-miterlimit:4;stroke-dasharray:none;stroke-opacity:1"
       d="m 34.702478,270.69335 c -0.426786,-2.67927 -1.554877,-8.65424 -2.488691,-13.18151 -2.175871,-10.54886 -4.29737,-18.84889 -5.366419,-20.99528 l -0.399009,-0.80109 0.919321,0.0703 c 0.505629,0.0386 2.700404,0.10606 4.877286,0.14993 3.557679,0.0717 3.949574,0.0985 3.874952,0.26529 -0.537015,1.20052 -0.875756,4.67879 -1.140271,11.70849 -0.147657,3.92401 -0.177955,16.84616 -0.04963,21.17559 0.04851,1.63677 0.06621,2.97594 0.03928,2.97594 -0.02693,0 -0.146966,-0.61543 -0.266785,-1.36761 z"
       id="path4632"
       inkscape:connector-curvature="0"
       inkscape:export-xdpi="174"
       inkscape:export-ydpi="174" />
    <text
       xml:space="preserve"
       style="font-style:normal;font-variant:normal;font-weight:normal;font-stretch:normal;font-size:88.3442688px;line-height:1.25;font-family:sans-serif;-inkscape-font-specification:sans-serif;letter-spacing:0px;word-spacing:0px;fill:#00afb5;fill-opacity:1;stroke:none;stroke-width:2.20860648"
       x="127.50497"
       y="195.16411"
       id="text2108"
       transform="scale(0.67456839,1.4824294)"
       inkscape:export-xdpi="174"
       inkscape:export-ydpi="174"
       inkscape:export-filename="/home/vanessa/Documents/inniti/site/inniti-1/static/images/logo.png"><tspan
         sodipodi:role="line"
         id="tspan2106"
         x="127.50497"
         y="195.16411"
         style="font-style:normal;font-variant:normal;font-weight:normal;font-stretch:normal;font-size:61.17582321px;font-family:Chilanka;-inkscape-font-specification:Chilanka;fill:#00afb5;fill-opacity:1;stroke-width:2.20860648">SOFTWARE</tspan></text>
  </g>
</svg>
